<svg width="40" height="40" viewBox="0 0 40 40" fill="none" xmlns="http://www.w3.org/2000/svg">
<path d="M38.3333 8.33333H33.3333V1.66667C33.3333 0.746667 32.5867 0 31.6667 0H5C2.2425 0 0 2.2425 0 5V35C0 37.7575 2.2425 40 5 40H35C37.7575 40 40 37.7575 40 35V10C40 9.08 39.2533 8.33333 38.3333 8.33333ZM5 36.6667C4.08083 36.6667 3.33333 35.9192 3.33333 35V5C3.33333 4.08083 4.08083 3.33333 5 3.33333H30V10V35C30 35.585 30.1067 36.1442 30.2917 36.6667H5ZM36.6667 35C36.6667 35.9192 35.9192 36.6667 35 36.6667C34.0808 36.6667 33.3333 35.9192 33.3333 35V11.6667H36.6667V35Z" fill="#CF0418"/>
<path d="M25 8.33337H8.33329C7.41329 8.33337 6.66663 9.08003 6.66663 10C6.66663 10.92 7.41329 11.6667 8.33329 11.6667H25C25.92 11.6667 26.6666 10.92 26.6666 10C26.6666 9.08003 25.92 8.33337 25 8.33337Z" fill="#CF0418"/>
<path d="M21.6666 18.3334H8.33329C7.41329 18.3334 6.66663 19.08 6.66663 20C6.66663 20.92 7.41329 21.6667 8.33329 21.6667H21.6666C22.5866 21.6667 23.3333 20.92 23.3333 20C23.3333 19.08 22.5866 18.3334 21.6666 18.3334Z" fill="#CF0418"/>
<path d="M20 23.3334H8.33329C7.41329 23.3334 6.66663 24.08 6.66663 25C6.66663 25.92 7.41329 26.6667 8.33329 26.6667H20C20.92 26.6667 21.6666 25.92 21.6666 25C21.6666 24.08 20.92 23.3334 20 23.3334Z" fill="#CF0418"/>
<path d="M18.3333 28.3334H8.33329C7.41329 28.3334 6.66663 29.08 6.66663 30C6.66663 30.92 7.41329 31.6667 8.33329 31.6667H18.3333C19.2533 31.6667 20 30.92 20 30C20 29.08 19.2533 28.3334 18.3333 28.3334Z" fill="#CF0418"/>
</svg>
